<?xml version="1.0" standalone="no"?>
<!DOCTYPE svg PUBLIC "-//W3C//DTD SVG 20010904//EN"
 "http://www.w3.org/TR/2001/REC-SVG-20010904/DTD/svg10.dtd">
<svg version="1.0" xmlns="http://www.w3.org/2000/svg"
 width="600.000000pt" height="600.000000pt" viewBox="0 0 600.000000 600.000000"
 preserveAspectRatio="xMidYMid meet">
<metadata>
Created by potrace 1.14, written by Peter Selinger 2001-2017
</metadata>
<g transform="translate(0.000000,600.000000) scale(0.100000,-0.100000)"
fill="#000000" stroke="none">
<path d="M0 3000 l0 -3000 3000 0 3000 0 0 3000 0 3000 -3000 0 -3000 0 0
-3000z m4897 1775 l-502 -625 -1700 3 -1700 2 -58 23 c-81 33 -168 116 -209
200 l-33 67 0 330 0 330 27 57 c29 63 101 146 155 179 19 12 60 30 91 40 54
17 161 18 2244 18 l2187 1 -502 -625z m-889 -1134 c-1 -4 -226 -286 -498 -624
l-495 -616 -1010 2 -1010 2 -58 23 c-81 33 -168 116 -209 200 l-33 67 0 330 0
330 27 57 c29 63 101 146 155 179 19 12 60 30 91 40 54 17 137 18 1550 18 844
1 1492 -3 1490 -8z m-2483 -1722 c218 -38 419 -198 500 -397 13 -32 28 -92 34
-135 41 -291 -145 -561 -459 -667 -93 -32 -279 -39 -386 -15 -251 55 -450 236
-509 461 -19 75 -19 213 0 288 41 158 170 315 320 393 162 83 310 105 500 72z
m3529 11 c156 -23 281 -130 327 -280 19 -63 20 -88 17 -361 -3 -281 -4 -297
-26 -352 -33 -81 -116 -168 -200 -209 l-67 -33 -1258 -3 c-1011 -2 -1257 0
-1251 10 8 13 699 874 892 1111 l103 127 697 0 c409 0 725 -5 766 -10z"/>
</g>
</svg>
